<?xml version="1.0" encoding="iso-8859-1"?>
<!-- Uploaded to: SVG Repo, www.svgrepo.com, Generator: SVG Repo Mixer Tools -->
<svg version="1.1" id="Layer_1" xmlns="http://www.w3.org/2000/svg" xmlns:xlink="http://www.w3.org/1999/xlink" 
	 viewBox="0 0 512 512" xml:space="preserve">
<circle style="fill:#FFD15D;" cx="256" cy="256" r="256"/>
<path style="fill:#F9B54C;" d="M511.448,272.627L390.959,152.138L256.431,274.389L123.232,390.551l121.177,121.177
	C248.253,511.898,252.114,512,256,512C391.797,512,502.879,406.261,511.448,272.627z"/>
<path style="fill:#324A5E;" d="M369.061,398.222h-226.12c-16.106,0-29.163-13.057-29.163-29.162V171.386
	c0-16.106,13.057-29.163,29.163-29.163h226.12c16.106,0,29.163,13.057,29.163,29.162v197.675
	C398.222,385.165,385.165,398.222,369.061,398.222z"/>
<path style="fill:#2B3B4E;" d="M369.061,142.222H255.426v256h113.635c16.106,0,29.163-13.057,29.163-29.163V171.386
	C398.222,155.279,385.165,142.222,369.061,142.222z"/>
<rect x="199.111" y="170.667" style="fill:#B5F1F4;" width="113.778" height="56.889"/>
<rect x="255.431" y="170.667" style="fill:#84DBFF;" width="57.458" height="56.889"/>
<path style="fill:#2C9984;" d="M252.983,225.401c-0.883,0-1.765-0.336-2.438-1.01l-28.444-28.444c-1.346-1.346-1.346-3.529,0-4.875
	c1.345-1.346,3.531-1.346,4.875,0l28.444,28.444c1.346,1.346,1.346,3.529,0,4.875C254.748,225.064,253.866,225.401,252.983,225.401z
	"/>
</svg>